<?xml version="1.0" standalone="no"?>
<!DOCTYPE svg PUBLIC "-//W3C//DTD SVG 20010904//EN"
 "http://www.w3.org/TR/2001/REC-SVG-20010904/DTD/svg10.dtd">
<svg version="1.0" xmlns="http://www.w3.org/2000/svg"
 width="512.000000pt" height="512.000000pt" viewBox="0 0 512.000000 512.000000"
 preserveAspectRatio="xMidYMid meet">

<g transform="translate(0.000000,512.000000) scale(0.100000,-0.100000)"
fill="#000000" stroke="none">
<path d="M105 4141 c-48 -22 -69 -44 -90 -94 -13 -32 -15 -188 -15 -1324 0
-812 4 -1301 10 -1322 11 -40 52 -86 95 -109 27 -14 229 -15 2045 -13 l2015 2
40 24 c22 13 50 41 63 63 l22 40 0 876 c0 523 -4 876 -9 876 -5 0 -17 33 -27
74 -16 70 -19 75 -48 80 -17 4 -57 20 -90 36 -105 54 -96 126 -96 -760 l0
-770 -1870 0 -1870 0 0 1030 0 1030 1675 0 1675 0 0 29 c0 71 10 90 54 102
105 29 100 25 122 89 l21 60 -1841 0 c-1765 0 -1843 -1 -1881 -19z"/>
<path d="M1842 3614 c-15 -11 -22 -25 -22 -50 0 -49 29 -74 85 -74 25 0 45 -3
45 -8 0 -12 -264 -272 -277 -272 -6 0 -97 50 -202 110 -104 61 -200 110 -212
110 -17 0 -96 -72 -281 -257 -230 -230 -258 -261 -258 -290 0 -41 42 -77 80
-68 15 4 117 98 250 231 l225 224 140 -81 c242 -140 262 -150 293 -138 15 5
100 83 190 172 l162 162 0 -45 c0 -63 21 -90 70 -90 63 0 70 19 70 188 0 138
-1 144 -25 167 -23 24 -29 25 -167 25 -114 0 -148 -3 -166 -16z"/>
<path d="M503 2127 c-50 -22 -46 -97 7 -124 33 -17 1910 -19 1957 -3 40 14 58
53 43 91 -7 15 -19 31 -28 35 -26 12 -1953 13 -1979 1z"/>
</g>
</svg>
